<?xml version="1.0" encoding="UTF-8"?>
<!-- Generator: Adobe Illustrator 25.4.1, SVG Export Plug-In . SVG Version: 6.00 Build 0)  -->
<svg version="1.1" id="Layer_1" xmlns="http://www.w3.org/2000/svg" xmlns:xlink="http://www.w3.org/1999/xlink" x="0px" y="0px" viewBox="0 0 343.5 235.5" style="enable-background:new 0 0 343.5 235.5;" xml:space="preserve">
<style type="text/css">
	.st0{fill:#F9F5F4;}
	.st1{fill:#F9F5F4;stroke:#FFFFFF;stroke-miterlimit:10;}
</style>
<g>
	<g>
		<path class="st0" d="M15.3,12.9c67,13.1,134.9,30.8,196,62.1c22.7,11.6,47,25.5,64,44.9c2.4,2.8,5.2,6.1,5.2,10    c0,1.4-0.4,2.6-1.1,3.8c-0.2,0.3-0.5,0.5-0.7,0.9c-0.1,0.2-0.3,0.3-0.5,0.4c0.3-0.4,5.7-3.9,6.1-4.1c2.6-1.6,0.2-0.2-1.3,0.3    c-9,2.9-19.4,2-28.6,1.1c-20.2-1.8-40.3-6.1-60-10.7c-34.5-8.1-68.7-18-102.6-28.4C80.9,89.8,70,86.4,59.2,82.9    c-1-0.3-4.5,2.6-5.4,3.2c-0.6,0.4-4.6,3.9-5,3.7c28.8,10.5,57.4,21.7,85.7,33.4c47.6,19.6,96.1,39.8,139.9,67    c8.7,5.4,17.3,11.2,24.9,18c4.7,4.2,9.8,9.4,11.5,15.7c-0.2-0.9,10.9-5.1,10.4-6.9c-1.4-5.5-5.6-10.1-9.6-13.9    c-6.3-6.1-13.5-11.2-20.8-15.9c-19.9-13.1-41.4-23.9-62.9-34.2c-45-21.6-91.2-40.5-137.8-58.4c-10.3-4-20.6-7.9-31-11.6    c-3.5,2.3-7,4.6-10.4,6.9c39.1,12.5,78.4,24.5,118.2,34.6c22.7,5.7,45.8,11.1,69.1,14c11,1.4,22.9,2.7,33.9,0.4    c3.5-0.7,6.5-2.1,9.6-4c3.4-2.1,8.5-4.6,10.6-8.3c2-3.7,0.1-7.7-2.2-10.7c-3.5-4.7-7.9-8.7-12.2-12.5    c-11.2-9.8-23.7-18.1-36.6-25.6C184.3,45.7,121.8,27.3,60.4,13.3c-11.5-2.6-23.1-5-34.7-7.3c-1.2-0.2-4.4,2.5-5.4,3.2    C19.6,9.7,16,13.1,15.3,12.9L15.3,12.9z"/>
	</g>
</g>
<g>
	<g>
		<path class="st1" d="M-20,53.5"/>
	</g>
</g>
</svg>